<?xml version="1.0" encoding="utf-8"?>
<!-- Generator: Adobe Illustrator 22.1.0, SVG Export Plug-In . SVG Version: 6.00 Build 0)  -->
<svg version="1.1" id="Laag_1" xmlns="http://www.w3.org/2000/svg" xmlns:xlink="http://www.w3.org/1999/xlink" x="0px" y="0px"
	 viewBox="0 0 496.4 314.2" style="enable-background:new 0 0 496.4 314.2;" xml:space="preserve">
<style type="text/css">
	.st0{fill:#FFFFFF;}
	.st1{fill:#E80C7A;}
</style>
<title>Kika kappers Logo</title>
<path class="st0" d="M52.7,217.5c0,0,9.3-124,1.4-159.5c13.6-7.5,31.8-7.5,36.5-7.5s7,67.8,7,67.8s19.6-37.4,19.2-65
	c11.2-5.2,31.8-5.2,37.4-0.9s-11.7,63.2-28.5,79.5c-3.8,4.7,36,48.2,37.9,86.1c-10.8,5.6-34.6,8-42.6,5.6
	c-6.1-23.9-12.2-46.3-23.9-68.8c-3.3,21.1-2.8,53.2-6.6,65C85.4,224.6,49.9,220.4,52.7,217.5"/>
<path class="st0" d="M246.7,217.5c0,0,9.4-124,1.4-159.5c13.6-7.5,31.8-7.5,36.5-7.5s7,67.8,7,67.8s19.6-37.4,19.2-65
	c11.2-5.2,31.8-5.2,37.4-0.9s-11.7,63.2-28.5,79.5c-3.7,4.7,36,48.2,37.9,86.1c-10.8,5.6-34.6,8-42.6,5.6
	c-6.1-23.9-12.2-46.3-23.9-68.8c-3.3,21.1-2.8,53.2-6.5,65C279.4,224.6,243.9,220.4,246.7,217.5"/>
<path class="st1" d="M172,48.2l38.9,10.3c0,0-17.8,30.4,9.1,77.7s4.4,105.3-21.8,139.4c-20.1-14.5-32.3-25.3-32.3-25.3
	s49.6-47.7,12.2-108.1C152.8,89.4,171.9,48.2,172,48.2"/>
<path class="st1" d="M180.9,31.6C186.1,20.3,195.3,6,200.3,0c9.3,7.1,29,23.9,29,23.9l-11.6,21.5C217.7,45.4,193.1,36.4,180.9,31.6"
	/>
<path class="st0" d="M425.3,187.2c0,0-10.8,1.2-18.7,0.4c1.2-16.6,6-42.9,11-62.8C418.4,137.9,425.3,187.2,425.3,187.2 M467.6,221.9
	c-9.1-35.4-23.7-142.5-28.8-168.4c-10.1-0.7-23.1-3-42,0.4c-1.5,24.4-26.5,136.5-37,168.8c7.9,1.9,39.3,4.2,39.3,4.2l3.1-15.5
	l28.3,1.1l0.4,11.4C430.8,223.8,454,224.6,467.6,221.9"/>
<path class="st0" d="M8.3,287h2.7v10l10.6-10h3.6l-12.7,11.9l13.7,14.7h-3.5l-11.6-12.4v12.4H8.3V287z"/>
<path class="st0" d="M97.2,287l12.4,26.6h-2.9l-4.1-8.7H91.1l-4.1,8.7h-3L96.5,287H97.2z M96.9,292.5l-4.6,9.7h9.1L96.9,292.5z"/>
<path class="st0" d="M169.9,287h5.3c2.1-0.1,4.1,0.1,6.1,0.4c1.5,0.3,2.8,1.1,3.7,2.3c1,1.2,1.5,2.8,1.4,4.4
	c0.1,1.6-0.4,3.1-1.4,4.4c-1,1.2-2.4,2-3.9,2.3c-2.2,0.4-4.5,0.5-6.8,0.4h-1.9v12.3h-2.6V287z M172.6,289.5v9l4.5,0.1
	c1.4,0.1,2.7-0.1,4-0.5c0.8-0.3,1.5-0.9,2-1.6c1-1.5,1-3.4,0-4.9c-0.5-0.7-1.1-1.3-1.9-1.6c-1.3-0.4-2.6-0.5-3.9-0.5L172.6,289.5z"
	/>
<path class="st0" d="M248,287h5.3c2.1-0.1,4.1,0.1,6.1,0.4c1.5,0.3,2.8,1.1,3.7,2.3c1,1.2,1.5,2.8,1.5,4.4c0.1,1.6-0.4,3.1-1.4,4.4
	c-1,1.2-2.4,2-3.9,2.3c-2.2,0.4-4.5,0.5-6.8,0.4h-1.9v12.3H248L248,287z M250.6,289.5v9l4.5,0.1c1.4,0.1,2.7-0.1,4-0.5
	c0.8-0.3,1.5-0.9,2-1.6c1-1.5,1-3.4,0-4.9c-0.5-0.7-1.1-1.3-1.9-1.6c-1.3-0.4-2.6-0.5-3.9-0.5L250.6,289.5z"/>
<path class="st0" d="M326.1,287h15.2v2.6h-12.5v8.4h12.4v2.6h-12.4v10.4h12.4v2.6h-15.1V287z"/>
<path class="st0" d="M402.2,287h5.3c2-0.1,4,0.1,6,0.4c1.5,0.3,2.9,1.1,3.9,2.3c1,1.2,1.5,2.8,1.5,4.4c0,1.3-0.3,2.7-1,3.8
	c-0.7,1.1-1.7,2-2.9,2.5c-1.7,0.6-3.5,0.9-5.2,0.9l9.5,12.3H416l-9.5-12.3h-1.6v12.3h-2.7L402.2,287z M404.9,289.5v9h4.6
	c1.3,0.1,2.7-0.1,3.9-0.5c0.8-0.3,1.5-0.9,2-1.6c0.5-0.7,0.7-1.6,0.7-2.5c0-0.9-0.2-1.7-0.7-2.4c-0.5-0.7-1.1-1.2-1.9-1.6
	c-1.3-0.4-2.6-0.5-3.9-0.5L404.9,289.5z"/>
<path class="st0" d="M478,308.6l2.3-1.4c1.6,2.9,3.4,4.4,5.5,4.4c0.9,0,1.7-0.2,2.5-0.6c0.7-0.4,1.4-1,1.8-1.7
	c0.4-0.7,0.6-1.4,0.6-2.2c0-0.9-0.3-1.9-0.9-2.6c-1.3-1.6-2.8-3.1-4.5-4.3c-1.5-1-2.9-2.3-4.1-3.6c-0.9-1.2-1.4-2.6-1.4-4
	c0-1.1,0.3-2.2,0.8-3.2c0.6-1,1.4-1.7,2.3-2.3c1-0.5,2.1-0.8,3.3-0.8c1.2,0,2.4,0.3,3.5,0.9c1.4,0.9,2.5,2.1,3.5,3.4l-2.2,1.6
	c-0.7-1-1.6-1.9-2.5-2.6c-0.7-0.4-1.5-0.6-2.3-0.6c-1,0-1.9,0.3-2.6,1c-0.7,0.6-1,1.5-1,2.4c0,0.6,0.1,1.2,0.4,1.7
	c0.3,0.7,0.8,1.3,1.3,1.8c0.3,0.3,1.5,1.2,3.4,2.6c1.8,1.2,3.4,2.8,4.7,4.5c0.8,1.2,1.3,2.6,1.3,4c0,1.9-0.8,3.7-2.2,5
	c-1.4,1.4-3.3,2.2-5.3,2.1c-1.6,0-3.1-0.4-4.4-1.3C480.1,311.8,478.8,310.3,478,308.6z"/>
<path class="st0" d="M0,245.1v4.9h157.9c1.9-1.3,3.5-2.9,4.7-4.9H0z"/>
<path class="st0" d="M224.5,245.7c-0.8,1.8-1.9,3.4-3.2,4.9h275v-4.9H224.5z"/>
</svg>
